<mxfile host="app.diagrams.net" modified="2023-09-17T03:23:31.446Z" agent="Mozilla/5.0 (Windows NT 10.0; Win64; x64) AppleWebKit/537.36 (KHTML, like Gecko) Chrome/116.0.0.0 Safari/537.36" etag="T3EKOuU7VZNFy-JP_QAz" version="21.7.5" type="github">
  <diagram name="PÃ¡gina-1" id="09xPEWDIAsVb31FCONAa">
    <mxGraphModel dx="3518" dy="1526" grid="1" gridSize="10" guides="1" tooltips="1" connect="1" arrows="1" fold="1" page="1" pageScale="1" pageWidth="827" pageHeight="1169" math="0" shadow="0">
      <root>
        <mxCell id="0" />
        <mxCell id="1" parent="0" />
        <mxCell id="ndQNpNWkVlCkafy7-DR1-1" value="" style="outlineConnect=0;dashed=0;verticalLabelPosition=bottom;verticalAlign=top;align=center;html=1;shape=mxgraph.aws3.internet_2;fillColor=#3333FF;strokeColor=#6c8ebf;" parent="1" vertex="1">
          <mxGeometry x="440" y="90" width="170" height="120" as="geometry" />
        </mxCell>
        <mxCell id="ndQNpNWkVlCkafy7-DR1-3" value="" style="rounded=0;whiteSpace=wrap;html=1;dashed=1;strokeWidth=4;fillColor=#FFFFFF;strokeColor=#d6b656;" parent="1" vertex="1">
          <mxGeometry x="-31.42" y="1280" width="400" height="200" as="geometry" />
        </mxCell>
        <mxCell id="ndQNpNWkVlCkafy7-DR1-6" value="" style="rounded=0;whiteSpace=wrap;html=1;dashed=1;strokeWidth=4;fillColor=#FFFFFF;strokeColor=#d6b656;" parent="1" vertex="1">
          <mxGeometry x="648.08" y="1285" width="400" height="200" as="geometry" />
        </mxCell>
        <mxCell id="ndQNpNWkVlCkafy7-DR1-8" value="" style="rounded=1;arcSize=10;dashed=1;fillColor=#ffe6cc;strokeWidth=2;strokeColor=#d79b00;" parent="1" vertex="1">
          <mxGeometry x="-50" y="650" width="496" height="260" as="geometry" />
        </mxCell>
        <mxCell id="ndQNpNWkVlCkafy7-DR1-9" value="" style="dashed=0;html=1;shape=mxgraph.aws3.cloud;fillColor=#F58536;gradientColor=none;dashed=0;" parent="1" vertex="1">
          <mxGeometry x="-24" y="640" width="52" height="36" as="geometry" />
        </mxCell>
        <mxCell id="ndQNpNWkVlCkafy7-DR1-29" style="edgeStyle=orthogonalEdgeStyle;rounded=0;orthogonalLoop=1;jettySize=auto;html=1;" parent="1" source="ndQNpNWkVlCkafy7-DR1-12" target="ndQNpNWkVlCkafy7-DR1-1" edge="1">
          <mxGeometry relative="1" as="geometry" />
        </mxCell>
        <mxCell id="ndQNpNWkVlCkafy7-DR1-12" value="" style="image;aspect=fixed;html=1;points=[];align=center;fontSize=12;image=img/lib/azure2/networking/Azure_Firewall_Manager.svg;" parent="1" vertex="1">
          <mxGeometry x="478.33" y="270" width="93.34" height="80" as="geometry" />
        </mxCell>
        <mxCell id="ndQNpNWkVlCkafy7-DR1-14" value="" style="endArrow=classic;html=1;rounded=0;entryX=0.5;entryY=1;entryDx=0;entryDy=0;entryPerimeter=0;fillColor=#ffe6cc;strokeColor=#d79b00;strokeWidth=4;dashed=1;" parent="1" source="ndQNpNWkVlCkafy7-DR1-12" target="ndQNpNWkVlCkafy7-DR1-1" edge="1">
          <mxGeometry width="50" height="50" relative="1" as="geometry">
            <mxPoint x="520" y="320" as="sourcePoint" />
            <mxPoint x="360" y="570" as="targetPoint" />
          </mxGeometry>
        </mxCell>
        <mxCell id="ndQNpNWkVlCkafy7-DR1-17" value="" style="image;points=[];aspect=fixed;html=1;align=center;shadow=0;dashed=0;image=img/lib/allied_telesis/storage/Datacenter_Server_Rack_Storage_Unit_Small.svg;" parent="1" vertex="1">
          <mxGeometry x="486.3" y="389.99999999999994" width="77.4" height="67.2" as="geometry" />
        </mxCell>
        <mxCell id="ndQNpNWkVlCkafy7-DR1-20" value="" style="image;points=[];aspect=fixed;html=1;align=center;shadow=0;dashed=0;image=img/lib/allied_telesis/computer_and_terminals/Personal_Computer.svg;" parent="1" vertex="1">
          <mxGeometry x="10" y="730" width="59.03" height="80" as="geometry" />
        </mxCell>
        <mxCell id="ndQNpNWkVlCkafy7-DR1-21" value="" style="image;points=[];aspect=fixed;html=1;align=center;shadow=0;dashed=0;image=img/lib/allied_telesis/computer_and_terminals/Personal_Computer.svg;" parent="1" vertex="1">
          <mxGeometry x="168" y="730" width="59.02" height="80" as="geometry" />
        </mxCell>
        <mxCell id="ndQNpNWkVlCkafy7-DR1-22" value="" style="image;points=[];aspect=fixed;html=1;align=center;shadow=0;dashed=0;image=img/lib/allied_telesis/computer_and_terminals/Personal_Computer.svg;" parent="1" vertex="1">
          <mxGeometry x="310" y="743.5999999999999" width="57.7" height="78.2" as="geometry" />
        </mxCell>
        <mxCell id="ndQNpNWkVlCkafy7-DR1-24" value="Web 1" style="text;html=1;strokeColor=none;fillColor=none;align=center;verticalAlign=middle;whiteSpace=wrap;rounded=0;" parent="1" vertex="1">
          <mxGeometry x="10.00000000000001" y="821.8" width="60" height="30" as="geometry" />
        </mxCell>
        <mxCell id="ndQNpNWkVlCkafy7-DR1-25" value="Web 2" style="text;html=1;strokeColor=none;fillColor=none;align=center;verticalAlign=middle;whiteSpace=wrap;rounded=0;" parent="1" vertex="1">
          <mxGeometry x="168" y="830" width="60" height="30" as="geometry" />
        </mxCell>
        <mxCell id="ndQNpNWkVlCkafy7-DR1-27" value="Web 3" style="text;html=1;strokeColor=none;fillColor=none;align=center;verticalAlign=middle;whiteSpace=wrap;rounded=0;" parent="1" vertex="1">
          <mxGeometry x="307.69999999999993" y="830" width="60" height="30" as="geometry" />
        </mxCell>
        <mxCell id="ndQNpNWkVlCkafy7-DR1-28" value="" style="endArrow=classic;html=1;rounded=0;entryX=0.502;entryY=0.023;entryDx=0;entryDy=0;fillColor=#ffe6cc;strokeColor=#d79b00;strokeWidth=4;dashed=1;entryPerimeter=0;" parent="1" source="ndQNpNWkVlCkafy7-DR1-12" target="ndQNpNWkVlCkafy7-DR1-17" edge="1">
          <mxGeometry width="50" height="50" relative="1" as="geometry">
            <mxPoint x="520" y="420" as="sourcePoint" />
            <mxPoint x="535" y="280" as="targetPoint" />
          </mxGeometry>
        </mxCell>
        <mxCell id="ndQNpNWkVlCkafy7-DR1-38" value="" style="rounded=1;arcSize=10;dashed=1;fillColor=#ffe6cc;strokeWidth=2;strokeColor=#d79b00;" parent="1" vertex="1">
          <mxGeometry x="600" y="650" width="496" height="260" as="geometry" />
        </mxCell>
        <mxCell id="ndQNpNWkVlCkafy7-DR1-39" value="" style="dashed=0;html=1;shape=mxgraph.aws3.cloud;fillColor=#F58536;gradientColor=none;dashed=0;" parent="1" vertex="1">
          <mxGeometry x="626" y="640" width="52" height="36" as="geometry" />
        </mxCell>
        <mxCell id="ndQNpNWkVlCkafy7-DR1-43" value="APP1" style="text;html=1;strokeColor=none;fillColor=none;align=center;verticalAlign=middle;whiteSpace=wrap;rounded=0;" parent="1" vertex="1">
          <mxGeometry x="683.8" y="830" width="60" height="30" as="geometry" />
        </mxCell>
        <mxCell id="ndQNpNWkVlCkafy7-DR1-44" value="APP2" style="text;html=1;strokeColor=none;fillColor=none;align=center;verticalAlign=middle;whiteSpace=wrap;rounded=0;" parent="1" vertex="1">
          <mxGeometry x="830.9" y="830" width="60" height="30" as="geometry" />
        </mxCell>
        <mxCell id="ndQNpNWkVlCkafy7-DR1-45" value="APP3" style="text;html=1;strokeColor=none;fillColor=none;align=center;verticalAlign=middle;whiteSpace=wrap;rounded=0;" parent="1" vertex="1">
          <mxGeometry x="970.9" y="830" width="60" height="30" as="geometry" />
        </mxCell>
        <mxCell id="ndQNpNWkVlCkafy7-DR1-46" value="&lt;font style=&quot;font-size: 25px;&quot;&gt;Balanceador&lt;/font&gt;" style="text;html=1;strokeColor=none;fillColor=none;align=center;verticalAlign=middle;whiteSpace=wrap;rounded=0;strokeWidth=7;" parent="1" vertex="1">
          <mxGeometry x="495" y="457.2" width="60" height="30" as="geometry" />
        </mxCell>
        <mxCell id="ndQNpNWkVlCkafy7-DR1-47" value="" style="endArrow=classic;html=1;rounded=0;entryX=0.5;entryY=0;entryDx=0;entryDy=0;fillColor=#ffe6cc;strokeColor=#d79b00;strokeWidth=4;dashed=1;exitX=0;exitY=1;exitDx=0;exitDy=0;" parent="1" source="ndQNpNWkVlCkafy7-DR1-46" target="ndQNpNWkVlCkafy7-DR1-8" edge="1">
          <mxGeometry width="50" height="50" relative="1" as="geometry">
            <mxPoint x="535" y="360" as="sourcePoint" />
            <mxPoint x="535" y="402" as="targetPoint" />
          </mxGeometry>
        </mxCell>
        <mxCell id="ndQNpNWkVlCkafy7-DR1-48" value="" style="endArrow=classic;html=1;rounded=0;entryX=0.5;entryY=0;entryDx=0;entryDy=0;fillColor=#ffe6cc;strokeColor=#d79b00;strokeWidth=4;dashed=1;exitX=1;exitY=1;exitDx=0;exitDy=0;" parent="1" source="ndQNpNWkVlCkafy7-DR1-46" target="ndQNpNWkVlCkafy7-DR1-38" edge="1">
          <mxGeometry width="50" height="50" relative="1" as="geometry">
            <mxPoint x="503" y="506" as="sourcePoint" />
            <mxPoint x="208" y="660" as="targetPoint" />
          </mxGeometry>
        </mxCell>
        <mxCell id="ndQNpNWkVlCkafy7-DR1-49" value="" style="image;points=[];aspect=fixed;html=1;align=center;shadow=0;dashed=0;image=img/lib/allied_telesis/computer_and_terminals/Server_Desktop.svg;" parent="1" vertex="1">
          <mxGeometry x="469.10999999999996" y="920" width="102.56" height="130" as="geometry" />
        </mxCell>
        <mxCell id="ndQNpNWkVlCkafy7-DR1-51" value="" style="image;points=[];aspect=fixed;html=1;align=center;shadow=0;dashed=0;image=img/lib/allied_telesis/computer_and_terminals/Smartphone.svg;" parent="1" vertex="1">
          <mxGeometry x="692.9000000000001" y="724.4" width="41.8" height="91.19" as="geometry" />
        </mxCell>
        <mxCell id="ndQNpNWkVlCkafy7-DR1-52" value="" style="image;points=[];aspect=fixed;html=1;align=center;shadow=0;dashed=0;image=img/lib/allied_telesis/computer_and_terminals/Smartphone.svg;" parent="1" vertex="1">
          <mxGeometry x="840.0000000000001" y="734.4" width="41.8" height="91.19" as="geometry" />
        </mxCell>
        <mxCell id="ndQNpNWkVlCkafy7-DR1-53" value="" style="image;points=[];aspect=fixed;html=1;align=center;shadow=0;dashed=0;image=img/lib/allied_telesis/computer_and_terminals/Smartphone.svg;" parent="1" vertex="1">
          <mxGeometry x="980.0000000000001" y="730.61" width="41.8" height="91.19" as="geometry" />
        </mxCell>
        <mxCell id="ndQNpNWkVlCkafy7-DR1-55" value="" style="endArrow=classic;html=1;rounded=0;exitX=0.5;exitY=1;exitDx=0;exitDy=0;entryX=-0.044;entryY=0.538;entryDx=0;entryDy=0;entryPerimeter=0;fillColor=#ffe6cc;strokeColor=#d79b00;strokeWidth=4;dashed=1;" parent="1" source="ndQNpNWkVlCkafy7-DR1-8" target="ndQNpNWkVlCkafy7-DR1-49" edge="1">
          <mxGeometry width="50" height="50" relative="1" as="geometry">
            <mxPoint x="390" y="1030" as="sourcePoint" />
            <mxPoint x="410" y="1020" as="targetPoint" />
            <Array as="points">
              <mxPoint x="190" y="990" />
            </Array>
          </mxGeometry>
        </mxCell>
        <mxCell id="ndQNpNWkVlCkafy7-DR1-56" value="" style="endArrow=classic;html=1;rounded=0;exitX=0.5;exitY=1;exitDx=0;exitDy=0;fillColor=#ffe6cc;strokeColor=#d79b00;strokeWidth=4;dashed=1;" parent="1" source="ndQNpNWkVlCkafy7-DR1-38" target="ndQNpNWkVlCkafy7-DR1-49" edge="1">
          <mxGeometry width="50" height="50" relative="1" as="geometry">
            <mxPoint x="208" y="920" as="sourcePoint" />
            <mxPoint x="570" y="1020" as="targetPoint" />
            <Array as="points">
              <mxPoint x="848" y="990" />
            </Array>
          </mxGeometry>
        </mxCell>
        <mxCell id="ndQNpNWkVlCkafy7-DR1-57" value="&lt;font style=&quot;font-size: 25px;&quot;&gt;SERVIDOR&lt;/font&gt;" style="text;html=1;strokeColor=none;fillColor=none;align=center;verticalAlign=middle;whiteSpace=wrap;rounded=0;" parent="1" vertex="1">
          <mxGeometry x="477.0799999999999" y="1050" width="60" height="30" as="geometry" />
        </mxCell>
        <mxCell id="ndQNpNWkVlCkafy7-DR1-58" value="" style="outlineConnect=0;dashed=0;verticalLabelPosition=bottom;verticalAlign=top;align=center;html=1;shape=mxgraph.aws3.dynamo_db;fillColor=#2E73B8;gradientColor=none;" parent="1" vertex="1">
          <mxGeometry x="110" y="1060" width="121" height="141" as="geometry" />
        </mxCell>
        <mxCell id="ndQNpNWkVlCkafy7-DR1-59" value="&lt;font style=&quot;font-size: 25px;&quot;&gt;SQL SERVER&lt;/font&gt;" style="text;html=1;strokeColor=none;fillColor=none;align=center;verticalAlign=middle;whiteSpace=wrap;rounded=0;" parent="1" vertex="1">
          <mxGeometry x="19.999999999999915" y="1100" width="60" height="30" as="geometry" />
        </mxCell>
        <mxCell id="ndQNpNWkVlCkafy7-DR1-60" value="" style="endArrow=classic;html=1;rounded=0;entryX=1;entryY=0.5;entryDx=0;entryDy=0;fillColor=#ffe6cc;strokeColor=#d79b00;strokeWidth=4;dashed=1;exitX=0.5;exitY=1;exitDx=0;exitDy=0;entryPerimeter=0;" parent="1" source="ndQNpNWkVlCkafy7-DR1-57" target="ndQNpNWkVlCkafy7-DR1-58" edge="1">
          <mxGeometry width="50" height="50" relative="1" as="geometry">
            <mxPoint x="563" y="506" as="sourcePoint" />
            <mxPoint x="858" y="660" as="targetPoint" />
            <Array as="points">
              <mxPoint x="507" y="1130" />
            </Array>
          </mxGeometry>
        </mxCell>
        <mxCell id="ndQNpNWkVlCkafy7-DR1-61" value="" style="outlineConnect=0;dashed=0;verticalLabelPosition=bottom;verticalAlign=top;align=center;html=1;shape=mxgraph.aws3.rds_db_instance;fillColor=#2E73B8;gradientColor=none;" parent="1" vertex="1">
          <mxGeometry x="9.899999999999991" y="1330" width="80.35" height="100" as="geometry" />
        </mxCell>
        <mxCell id="ndQNpNWkVlCkafy7-DR1-62" value="" style="outlineConnect=0;dashed=0;verticalLabelPosition=bottom;verticalAlign=top;align=center;html=1;shape=mxgraph.aws3.rds_db_instance_read_replica;fillColor=#2E73B8;gradientColor=none;" parent="1" vertex="1">
          <mxGeometry x="691.48" y="1335" width="86.6" height="110" as="geometry" />
        </mxCell>
        <mxCell id="ndQNpNWkVlCkafy7-DR1-63" value="&lt;font style=&quot;font-size: 25px;&quot;&gt;MySql&lt;br&gt;Master&lt;/font&gt;" style="text;html=1;strokeColor=none;fillColor=none;align=center;verticalAlign=middle;whiteSpace=wrap;rounded=0;" parent="1" vertex="1">
          <mxGeometry x="138.57999999999993" y="1365" width="60" height="30" as="geometry" />
        </mxCell>
        <mxCell id="ndQNpNWkVlCkafy7-DR1-65" value="&lt;font style=&quot;font-size: 25px;&quot;&gt;MySql&lt;br&gt;Replica&lt;/font&gt;" style="text;html=1;strokeColor=none;fillColor=none;align=center;verticalAlign=middle;whiteSpace=wrap;rounded=0;" parent="1" vertex="1">
          <mxGeometry x="828.08" y="1370" width="60" height="30" as="geometry" />
        </mxCell>
        <mxCell id="ndQNpNWkVlCkafy7-DR1-66" value="" style="endArrow=classic;html=1;rounded=0;entryX=0.5;entryY=0;entryDx=0;entryDy=0;fillColor=#ffe6cc;strokeColor=#d79b00;strokeWidth=4;dashed=1;" parent="1" source="ndQNpNWkVlCkafy7-DR1-58" target="ndQNpNWkVlCkafy7-DR1-3" edge="1">
          <mxGeometry width="50" height="50" relative="1" as="geometry">
            <mxPoint x="526" y="1120" as="sourcePoint" />
            <mxPoint x="191" y="1179" as="targetPoint" />
            <Array as="points" />
          </mxGeometry>
        </mxCell>
        <mxCell id="ndQNpNWkVlCkafy7-DR1-67" value="" style="endArrow=classic;html=1;rounded=0;entryX=0;entryY=0.5;entryDx=0;entryDy=0;fillColor=#ffe6cc;strokeColor=#d79b00;strokeWidth=4;dashed=1;exitX=1;exitY=0.5;exitDx=0;exitDy=0;" parent="1" source="ndQNpNWkVlCkafy7-DR1-3" target="ndQNpNWkVlCkafy7-DR1-6" edge="1">
          <mxGeometry width="50" height="50" relative="1" as="geometry">
            <mxPoint x="179.07999999999998" y="1225" as="sourcePoint" />
            <mxPoint x="179.07999999999998" y="1290" as="targetPoint" />
            <Array as="points" />
          </mxGeometry>
        </mxCell>
        <mxCell id="Ul7K43ii-u3MiD1I9LOa-1" value="" style="outlineConnect=0;dashed=0;verticalLabelPosition=bottom;verticalAlign=top;align=center;html=1;shape=mxgraph.aws3.vpc_nat_gateway;fillColor=#F58534;gradientColor=none;strokeColor=#006658;fontColor=#5C5C5C;" vertex="1" parent="1">
          <mxGeometry x="-450" y="610" width="69" height="72" as="geometry" />
        </mxCell>
      </root>
    </mxGraphModel>
  </diagram>
</mxfile>
